<svg preserveAspectRatio="none" width="100%" height="100%" overflow="visible" style="display: block;" viewBox="0 0 20.8496 20.1934" fill="none" xmlns="http://www.w3.org/2000/svg">
<path id="Vector" d="M4.53906 10.1309C3.15365 10.1309 2.05078 9.6888 1.23047 8.80469C0.410156 7.91146 0 6.72201 0 5.23633C0 3.61393 0.432943 2.33789 1.29883 1.4082C2.17383 0.469401 3.34961 0 4.82617 0C6.25716 0 7.36458 0.432943 8.14844 1.29883C8.94141 2.16471 9.33789 3.38151 9.33789 4.94922C9.33789 6.51693 8.89583 7.77474 8.01172 8.72266C7.1276 9.66146 5.97005 10.1309 4.53906 10.1309ZM4.73047 1.91406C3.98307 1.91406 3.39062 2.20117 2.95312 2.77539C2.52474 3.34961 2.31055 4.13802 2.31055 5.14062C2.31055 6.125 2.52018 6.89062 2.93945 7.4375C3.36784 7.98438 3.95117 8.25781 4.68945 8.25781C5.42773 8.25781 6.00651 7.97526 6.42578 7.41016C6.84505 6.83594 7.05469 6.04297 7.05469 5.03125C7.05469 4.04688 6.84505 3.28125 6.42578 2.73438C6.01562 2.1875 5.45052 1.91406 4.73047 1.91406ZM17.8145 0.287109L5.23633 20.0293H3.28125L15.8457 0.287109H17.8145ZM16.0508 20.1934C14.6654 20.1934 13.5625 19.7513 12.7422 18.8672C11.9219 17.974 11.5117 16.7845 11.5117 15.2988C11.5117 13.6764 11.9447 12.4004 12.8105 11.4707C13.6855 10.5319 14.8613 10.0625 16.3379 10.0625C17.7689 10.0625 18.8763 10.4954 19.6602 11.3613C20.4531 12.2272 20.8496 13.444 20.8496 15.0117C20.8496 16.5794 20.4076 17.8372 19.5234 18.7852C18.6393 19.724 17.4818 20.1934 16.0508 20.1934ZM16.2422 11.9766C15.4948 11.9766 14.9023 12.2637 14.4648 12.8379C14.0365 13.4121 13.8223 14.2005 13.8223 15.2031C13.8223 16.1875 14.0319 16.9531 14.4512 17.5C14.8796 18.0469 15.4629 18.3203 16.2012 18.3203C16.9395 18.3203 17.5182 18.0378 17.9375 17.4727C18.3568 16.8984 18.5664 16.1055 18.5664 15.0938C18.5664 14.1094 18.3568 13.3438 17.9375 12.7969C17.5273 12.25 16.9622 11.9766 16.2422 11.9766Z" fill="var(--fill-0, white)"/>
</svg>
